{
	"asset":{
		"generator":"Khronos glTF Blender I/O v3.6.27",
		"version":"2.0"
	},
	"extensionsUsed":[
		"KHR_materials_unlit"
	],
	"scene":0,
	"scenes":[
		{
			"name":"Scene",
			"nodes":[
				0,
				1
			]
		}
	],
	"nodes":[
		{
			"mesh":0,
			"name":"Mesh_0"
		},
		{
			"mesh":1,
			"name":"Plane",
			"translation":[
				-5.389560222625732,
				-0.18367762863636017,
				0.07272360473871231
			]
		}
	],
	"materials":[
		{
			"extensions":{
				"KHR_materials_unlit":{}
			},
			"name":"Material_0",
			"pbrMetallicRoughness":{
				"baseColorFactor":[
					0,
					1,
					0,
					1
				],
				"metallicFactor":0,
				"roughnessFactor":0.9
			}
		}
	],
	"meshes":[
		{
			"name":"Mesh_0",
			"primitives":[
				{
					"attributes":{
						"POSITION":0,
						"NORMAL":1,
						"TEXCOORD_0":2
					},
					"indices":3,
					"material":0
				}
			]
		},
		{
			"name":"Plane",
			"primitives":[
				{
					"attributes":{
						"POSITION":4,
						"NORMAL":5,
						"TEXCOORD_0":6
					},
					"indices":7
				}
			]
		}
	],
	"accessors":[
		{
			"bufferView":0,
			"componentType":5126,
			"count":715,
			"max":[
				1.0067249536514282,
				1.0067249536514282,
				0.009999999776482582
			],
			"min":[
				-0.00672498531639576,
				-0.00672498531639576,
				-0.009999999776482582
			],
			"type":"VEC3"
		},
		{
			"bufferView":1,
			"componentType":5126,
			"count":715,
			"type":"VEC3"
		},
		{
			"bufferView":2,
			"componentType":5126,
			"count":715,
			"type":"VEC2"
		},
		{
			"bufferView":3,
			"componentType":5123,
			"count":3840,
			"type":"SCALAR"
		},
		{
			"bufferView":4,
			"componentType":5126,
			"count":40,
			"max":[
				26.231529235839844,
				0.8009478449821472,
				0.9973248243331909
			],
			"min":[
				-1.0276893377304077,
				-2.2373900413513184,
				-5.250533580780029
			],
			"type":"VEC3"
		},
		{
			"bufferView":5,
			"componentType":5126,
			"count":40,
			"type":"VEC3"
		},
		{
			"bufferView":6,
			"componentType":5126,
			"count":40,
			"type":"VEC2"
		},
		{
			"bufferView":7,
			"componentType":5123,
			"count":60,
			"type":"SCALAR"
		}
	],
	"bufferViews":[
		{
			"buffer":0,
			"byteLength":8580,
			"byteOffset":0,
			"target":34962
		},
		{
			"buffer":0,
			"byteLength":8580,
			"byteOffset":8580,
			"target":34962
		},
		{
			"buffer":0,
			"byteLength":5720,
			"byteOffset":17160,
			"target":34962
		},
		{
			"buffer":0,
			"byteLength":7680,
			"byteOffset":22880,
			"target":34963
		},
		{
			"buffer":0,
			"byteLength":480,
			"byteOffset":30560,
			"target":34962
		},
		{
			"buffer":0,
			"byteLength":480,
			"byteOffset":31040,
			"target":34962
		},
		{
			"buffer":0,
			"byteLength":320,
			"byteOffset":31520,
			"target":34962
		},
		{
			"buffer":0,
			"byteLength":120,
			"byteOffset":31840,
			"target":34963
		}
	],
	"buffers":[
		{
			"byteLength":31960,
			"uri":"data:application/octet-stream;base64,"
		}
	]
}
